PathFileType	4	(X/Y/Z)	/Users/niels/Desktop/University/Third Semester/Perception and Action/Exam/Gymnastics Motion Tracking/Code for Gym Tracking/Analyzed Data/Webcam_Backflip/id4_2_trajectory_Sports2D/id4_2_trajectory_Sports2D_px_person00.trc
DataRate	CameraRate	NumFrames	NumMarkers	Units	OrigDataRate	OrigDataStartFrame	OrigNumFrames
29.714285714285715	29.714285714285715	11	22	m	29.714285714285715	13	105
Frame#	Time	Hip			RHip			RKnee			RAnkle			RBigToe			RSmallToe			RHeel			LHip			LKnee			LAnkle			LBigToe			LSmallToe			LHeel			Neck			Head			Nose			RShoulder			RElbow			RWrist			LShoulder			LElbow			LWrist		
		X1	Y1	Z1	X2	Y2	Z2	X3	Y3	Z3	X4	Y4	Z4	X5	Y5	Z5	X6	Y6	Z6	X7	Y7	Z7	X8	Y8	Z8	X9	Y9	Z9	X10	Y10	Z10	X11	Y11	Z11	X12	Y12	Z12	X13	Y13	Z13	X14	Y14	Z14	X15	Y15	Z15	X16	Y16	Z16	X17	Y17	Z17	X18	Y18	Z18	X19	Y19	Z19	X20	Y20	Z20	X21	Y21	Z21	X22	Y22	Z22
13	0.4375	0.9498463018291219	-0.6192624205604446	0.0	0.9465906612897331	-0.6156121168456864	0.0	0.9596184000567359	-0.7366781455325967	0.0	0.9462170216053553	-0.8596186480402225	0.0	0.9852125379153025	-0.8812875712604097	0.0	0.9715313529695346	-0.8834108553345665	0.0	0.9391269228768819	-0.8794984687644529	0.0	0.9571223194704804	-0.6152692356765244	0.0	0.9611015663006962	-0.7341402384535473	0.0	0.9481968580271473	-0.8538221640584741	0.0	0.9875763855178927	-0.8758811008870282	0.0	0.9800546854845781	-0.8734415785197109	0.0	0.937752332708439	-0.8695160354931835	0.0	0.9629236103558138	-0.4505078200268844	0.0	0.9786097952114683	-0.3752098335766028	0.0	0.980464094958428	-0.4181869375256196	0.0	0.9503523855885817	-0.46850773160956466	0.0	0.9644276432904288	-0.5480506495133863	0.0	1.0395439762779417	-0.5617667399278662	0.0	0.9637482876658314	-0.4710973461835396	0.0	0.9723346147762018	-0.5380174725853321	0.0	1.0257787972506818	-0.5326319138739356	0.0
14	0.47115384615384615	0.950002323532335	-0.619424024121763	0.0	0.946876716098513	-0.6159470741794909	0.0	0.959596468266482	-0.7368157016387321	0.0	0.9462143425613904	-0.8596022999366794	0.0	0.9848356978378833	-0.8814098216463961	0.0	0.9706301409416432	-0.8835415889364632	0.0	0.9390402433497989	-0.8792802279794498	0.0	0.957269605884037	-0.6153297545732187	0.0	0.9607474650854563	-0.7344670146082369	0.0	0.9480207977338673	-0.8538926822553665	0.0	0.9861426523978771	-0.8759962761506217	0.0	0.9788117861663366	-0.8736908375662282	0.0	0.9377431768880018	-0.8693929674084419	0.0	0.9629215757656184	-0.4507050380311855	0.0	0.9782155546687733	-0.37528616514171753	0.0	0.9803511197269583	-0.4181889424071231	0.0	0.9501887378915386	-0.4687103005213759	0.0	0.9649854831976248	-0.5479924240652971	0.0	1.0402612709244838	-0.5596887143623009	0.0	0.9641507745077466	-0.4711203797739198	0.0	0.9729489751902758	-0.5380170345292621	0.0	1.026250470376755	-0.5317816359599611	0.0
15	0.5048076923076923	0.9501260760702052	-0.6195218380982213	0.0	0.9472040875946414	-0.6162654332323251	0.0	0.9596669290431648	-0.7368417198818276	0.0	0.9461872354162498	-0.8595949199867825	0.0	0.9846831497292411	-0.8815628561036424	0.0	0.9702450893421318	-0.8836832093403788	0.0	0.9390055013988281	-0.8791950575975181	0.0	0.9573220316946031	-0.6152953221883142	0.0	0.9604776835923824	-0.7347772343741146	0.0	0.9478157222932461	-0.8539534460452831	0.0	0.9850759122966889	-0.8761628795050703	0.0	0.977980215035267	-0.8738865761953529	0.0	0.937690558851821	-0.8692729035142767	0.0	0.9629404983137487	-0.45085117960679033	0.0	0.9779027701383797	-0.37526850017675073	0.0	0.9801706991120338	-0.41812753643534506	0.0	0.950112154811953	-0.4688521174873322	0.0	0.965363668859543	-0.5478507450661639	0.0	1.0407945669775747	-0.5577403094751175	0.0	0.9644149258454756	-0.4712055196992451	0.0	0.973521541908037	-0.5379644147037974	0.0	1.0267820642471184	-0.5311217332308608	0.0
16	0.5384615384615384	0.9502698648467178	-0.6195290353770208	0.0	0.9476047708343295	-0.6165177509622604	0.0	0.9598893008785011	-0.7367876474962628	0.0	0.946153305270107	-0.8595245867937015	0.0	0.9848484021535707	-0.8815668209724077	0.0	0.9704994570336438	-0.883667670197614	0.0	0.938923401226704	-0.8791225323949443	0.0	0.9572837233221697	-0.6152366253356836	0.0	0.9603626063230091	-0.7350530763384604	0.0	0.9476153922069798	-0.8539845340709155	0.0	0.984576094642877	-0.8762707580825262	0.0	0.977678858318554	-0.8738888251052046	0.0	0.9375285454528067	-0.8691244650030234	0.0	0.9629894480594177	-0.45098756412462426	0.0	0.9777169758891904	-0.37520342564807885	0.0	0.9800080019975563	-0.4180768520560894	0.0	0.9501791723739443	-0.46895583918536826	0.0	0.9657130264236207	-0.5476416191823643	0.0	1.0413712744883046	-0.5559482938130137	0.0	0.964435593011001	-0.47131799577138817	0.0	0.973955640549444	-0.5379004399145089	0.0	1.0273353748320777	-0.5306603656458098	0.0
17	0.5721153846153846	0.9504816906596479	-0.6194542344444087	0.0	0.9480555936056931	-0.616682532411855	0.0	0.9602909767153095	-0.7366963035300438	0.0	0.9461526452083276	-0.8593260742275041	0.0	0.9854765714134508	-0.8812943939537587	0.0	0.9715139391541971	-0.8834047242980806	0.0	0.938737490879199	-0.8789633552703758	0.0	0.9572355938293723	-0.6152204180850048	0.0	0.9604602479306137	-0.7352678072546616	0.0	0.9474776508775434	-0.8539865974579655	0.0	0.9848940414521266	-0.8761923047082079	0.0	0.9780642045341127	-0.873627462234379	0.0	0.9372540628985525	-0.8689700844517017	0.0	0.9630584207076724	-0.4511701762958983	0.0	0.9776637428596996	-0.3751537890854918	0.0	0.9799526256120225	-0.4180987238995313	0.0	0.9503611230598676	-0.46907460559803377	0.0	0.9661235617027878	-0.5473930424089607	0.0	1.0421619620115652	-0.5542719276007158	0.0	0.9641967705887559	-0.47144934888908124	0.0	0.9741862550218261	-0.5378776438012107	0.0	1.0278613826195733	-0.5303738795805901	0.0
18	0.6057692307692307	0.9508134246521759	-0.6193801111016553	0.0	0.9485197176415281	-0.6167821901720442	0.0	0.9608455350676748	-0.7366182057387378	0.0	0.9461972674297013	-0.8590265326443287	0.0	0.9865982868618463	-0.8807495540875611	0.0	0.97319009397511	-0.8829246955590375	0.0	0.9384547339452812	-0.8787291561039173	0.0	0.9572824007446022	-0.6153000729172862	0.0	0.9607971455191419	-0.7354204580385085	0.0	0.947443654165182	-0.8539700739480259	0.0	0.9860015758316467	-0.8758608591863598	0.0	0.9791002911433151	-0.8731397095980848	0.0	0.9369024512516315	-0.8688512031060373	0.0	0.9631126091911473	-0.45142070663815953	0.0	0.9777254480403103	-0.3751638348881237	0.0	0.9800858278436422	-0.4182249946476517	0.0	0.9505544260926881	-0.4692497579330454	0.0	0.9666656991723299	-0.5471449728926556	0.0	1.04324078985691	-0.5525625450464632	0.0	0.9637351966006825	-0.47159730280610673	0.0	0.9742384792669644	-0.5379321131241527	0.0	1.0283743851571987	-0.5301464787037676	0.0
19	0.6394230769230769	0.9512958599474308	-0.6194111601868274	0.0	0.9489962410376316	-0.6168664556551011	0.0	0.961510423018135	-0.7366055632400728	0.0	0.9462693934321185	-0.8587461026106262	0.0	0.9880288481979709	-0.8800805700756776	0.0	0.9751626986202165	-0.8823510109746625	0.0	0.938123592229993	-0.8785352358518191	0.0	0.9574957559303043	-0.6155102590635588	0.0	0.9613465173508947	-0.7355528137839807	0.0	0.9475034435517606	-0.8539404897604855	0.0	0.9874780789067314	-0.8753287085685234	0.0	0.980471077143748	-0.8725429282063734	0.0	0.9365207430183494	-0.8687823607438362	0.0	0.9631169138872013	-0.4517262072127401	0.0	0.9779040964002409	-0.3752344459816014	0.0	0.980478546556274	-0.41847038506712597	0.0	0.9506649765989624	-0.4694998383468055	0.0	0.9674354218527983	-0.5469218295399806	0.0	1.044590371346013	-0.5506045514746806	0.0	0.9630679218013385	-0.47175621873144935	0.0	0.9741989926920698	-0.5380357327088011	0.0	1.0290107043003436	-0.5297650000456173	0.0
20	0.673076923076923	0.9519137313452867	-0.6195828355854296	0.0	0.9495294111691551	-0.6169867361826724	0.0	0.9622573968783317	-0.7366912439971758	0.0	0.9463523820758771	-0.858610402864172	0.0	0.9894142709742595	-0.8795102910150223	0.0	0.976947900782063	-0.8818569961710182	0.0	0.9378099195487424	-0.8784975976227462	0.0	0.9578981549147039	-0.61584651890712	0.0	0.9620052691476406	-0.7357250556763187	0.0	0.9476035991814296	-0.8539170855357957	0.0	0.988652479783997	-0.8747778623926258	0.0	0.9816729620437578	-0.8719954905436257	0.0	0.9361561897870316	-0.8687656948553926	0.0	0.9630448625462227	-0.4520832829763625	0.0	0.9782223734872102	-0.37533493006447	0.0	0.981173279622755	-0.41884920401718284	0.0	0.9506909504009102	-0.4698170797413558	0.0	0.9685552597718733	-0.546677282199902	0.0	1.0461641416131562	-0.548138752376871	0.0	0.9621607914495719	-0.4719199693316171	0.0	0.9741578021278836	-0.5380667274803684	0.0	1.0299813426160729	-0.5289572013269997	0.0
21	0.7067307692307692	0.9526355423917596	-0.6198472844566257	0.0	0.9501801149040077	-0.6171713596862741	0.0	0.963052615802385	-0.7368739051802529	0.0	0.9464249502954051	-0.8586571119656216	0.0	0.9903385677170727	-0.8792287598169214	0.0	0.9780581887569657	-0.8816002204278353	0.0	0.937564941774566	-0.8786236658310481	0.0	0.9584640786865672	-0.6162414969438328	0.0	0.9626190343057363	-0.7359550884800163	0.0	0.947682846140798	-0.8539135987626458	0.0	0.9888030553541238	-0.8744467609582186	0.0	0.9821284652310439	-0.8716372442378335	0.0	0.9358349218819131	-0.8687790651017577	0.0	0.9628842362604005	-0.4525056752133253	0.0	0.9786930986804336	-0.37544180153148105	0.0	0.9821500941703727	-0.4193582457314471	0.0	0.9507085478564566	-0.47014766851313855	0.0	0.9701582022491314	-0.5462649894564209	0.0	1.0479584285089951	-0.5448316555895761	0.0	0.9609988175571085	-0.47205972788137474	0.0	0.9742645227685772	-0.5378386658723076	0.0	1.0315127267679187	-0.5274117374836995	0.0
22	0.7403846153846153	0.9534599862682133	-0.6201439755919398	0.0	0.9509882361686337	-0.6174077247365674	0.0	0.9638461181379219	-0.7371287524101151	0.0	0.9464554959721947	-0.8588302169178883	0.0	0.9904378009843866	-0.8793275320541253	0.0	0.978141061415794	-0.8816647873607056	0.0	0.9373910866334544	-0.8787951778407418	0.0	0.9591143964330647	-0.616589712687475	0.0	0.9630519692347153	-0.7362123664786177	0.0	0.9477031657943946	-0.8538959977520034	0.0	0.9874443878027998	-0.8745199334459366	0.0	0.9813639442175704	-0.8715411525093086	0.0	0.9355386921698742	-0.8687382149383182	0.0	0.9626605502779528	-0.452974816287208	0.0	0.9792922248784705	-0.37554306975194024	0.0	0.9832909085895292	-0.419955703046798	0.0	0.9507960444356538	-0.4703944272666046	0.0	0.9723700388925999	-0.5454525182839287	0.0	1.0500120313640804	-0.5402817267144797	0.0	0.9596665186297797	-0.47209749731165845	0.0	0.9747880127004593	-0.5371402329088444	0.0	1.0338210759558515	-0.5247764620465808	0.0
23	0.7740384615384615	0.9544040886872545	-0.620449692905423	0.0	0.951951259822852	-0.6176473986724818	0.0	0.9645891822124757	-0.7374332131039314	0.0	0.946452355535224	-0.8590337889784004	0.0	0.9895171370861069	-0.879775018949588	0.0	0.9771690508991816	-0.8820333424537886	0.0	0.9372532992904226	-0.878834645421249	0.0	0.9597397723010245	-0.6168141207006268	0.0	0.9632617331947761	-0.7364717464839804	0.0	0.9476634040682936	-0.8537881623145169	0.0	0.9846279678049181	-0.8750488751811436	0.0	0.9792722341850951	-0.8717026055655245	0.0	0.9352312072642629	-0.8685243135477099	0.0	0.96243553412299	-0.45341342998116346	0.0	0.9799431339667847	-0.3756184257631696	0.0	0.9844099283293385	-0.4205705099193974	0.0	0.9509942080842868	-0.47047064656627313	0.0	0.9752963371788661	-0.5439313445470331	0.0	1.0523433069774932	-0.534102876921539	0.0	0.9583367344124344	-0.4719379462180052	0.0	0.9760660741860683	-0.5357456524870768	0.0	1.037059541600682	-0.5206589079179292	0.0
